<svg id="Layer_1" data-name="Layer 1" xmlns="http://www.w3.org/2000/svg" width="767" height="275" viewBox="0 0 767 275"><defs><style>.cls-1{fill:#c00;}.cls-2{fill:#ccc;}.cls-3{fill:none;}</style></defs><title>anton-paar-logo-freelogovectors.net_</title><g id="Ebene_1" data-name="Ebene 1"><g id="Gruppe_336" data-name="Gruppe 336"><g id="Gruppe_335" data-name="Gruppe 335"><path id="Pfad_155" data-name="Pfad 155" class="cls-1" d="M221.46,445.57l.57-1.14c1.14-2.84,2.27-5.12,3.41-8.54h0c15.94-13.09,22.77-25,18.79-34.15s-19.36-14.22-42.69-14.22a312.13,312.13,0,0,0-94.48,18.21c-23.91,8.54-46.67,18.78-68.3,31.87H32.5l1.14-1.14a362.26,362.26,0,0,1,78-37A337.87,337.87,0,0,1,215.2,379.55c25,0,41,5.69,45.53,15.93,2.85,6.83,1.14,15.37-5.12,23.91a89.56,89.56,0,0,1-33,25.61Z" transform="translate(-16.5 -262.5)"/></g></g><path id="Pfad_156" data-name="Pfad 156" class="cls-2" d="M80.68,423.18a282.76,282.76,0,0,1,76.84-25,330.48,330.48,0,0,1,17.07,66c-18.78,10.24-41.54,10.24-60.89,1.14a68.51,68.51,0,0,1-33-40.41Z" transform="translate(-16.5 -262.5)"/><path id="Pfad_157" data-name="Pfad 157" class="cls-2" d="M176.87,480.66c-10.24,5.13-21.63,7.4-33.58,7.4a71.08,71.08,0,0,1-37-10.24l10.81-5.69a69.32,69.32,0,0,0,26.18,5.12,67.85,67.85,0,0,0,31.87-8Z" transform="translate(-16.5 -262.5)"/><path id="Pfad_158" data-name="Pfad 158" class="cls-2" d="M186.55,462.45l1.7,11.38c21.63-14.23,34.15-38.7,34.15-64.88a131.63,131.63,0,0,0-1.13-14.8L211,393a70.64,70.64,0,0,1,1.71,15.37A65.8,65.8,0,0,1,186.55,462.45Z" transform="translate(-16.5 -262.5)"/><g id="Gruppe_337" data-name="Gruppe 337"><path id="Pfad_159" data-name="Pfad 159" class="cls-1" d="M156.38,381.94h0c-17.07-43.25-38.13-71.14-53.5-71.14a7.17,7.17,0,0,0-3.41.57c-9.11,2.84-14.23,15.37-15.37,37h0a57.48,57.48,0,0,0-5.69,6.26l-1.71,1.71v-1.14c-1.14-35.85,5.69-58.05,18.21-62a9.7,9.7,0,0,1,4-.57c18.21,0,42.68,34.15,62,87.65v.57Z" transform="translate(-16.5 -262.5)"/></g><path id="Pfad_160" data-name="Pfad 160" class="cls-2" d="M147.84,338.94a77.29,77.29,0,0,1,27.32,6.83l9.68-4.55a80.88,80.88,0,0,0-41-11.38h-1.14Z" transform="translate(-16.5 -262.5)"/><path id="Pfad_161" data-name="Pfad 161" class="cls-2" d="M125.08,332.11A79.06,79.06,0,0,0,64.18,409v4l9.67-4.55a68.48,68.48,0,0,1,56.92-67.73Z" transform="translate(-16.5 -262.5)"/><g id="Gruppe_338" data-name="Gruppe 338"><path id="Pfad_162" data-name="Pfad 162" class="cls-1" d="M336.08,370.69h0l6.83,20.49H329.25Zm-29.59,42.68h15.93l4-10.81h19.92l3.41,10.81h15.94l-21.63-59.19H328.68Z" transform="translate(-16.5 -262.5)"/><path id="Pfad_163" data-name="Pfad 163" class="cls-1" d="M370.23,413.37h14.23V390c0-4.56,2.28-9.11,7.4-9.11,7.4,0,6.83,5.69,6.83,11.95v20.49h14.23V385.48c0-6.26-1.14-16.5-15.37-16.5-5.12,0-10.24,2.84-13.66,6.83h0v-5.69H370.23Z" transform="translate(-16.5 -262.5)"/><path id="Pfad_164" data-name="Pfad 164" class="cls-1" d="M447.64,370.12H439.1V357.6H424.87v13.09H418v9.1h6.83v18.78c0,11.39,2.84,15.37,14.8,15.37,2.27,0,5.12-.57,7.4-.57V402.56h-3.42c-2.84,0-5.12-.57-5.12-4V379.22h8.54Z" transform="translate(-16.5 -262.5)"/><path id="Pfad_165" data-name="Pfad 165" class="cls-1" d="M465.85,391.74c0-5.69,1.71-11.95,8.54-11.95s8.53,6.26,8.53,11.95-2.27,12-8.53,12S465.85,397.44,465.85,391.74Zm-13.66,0c0,12.53,10.24,22.77,22.76,22.2,12.53,0,22.77-10.24,22.2-22.76,0-12.53-10.24-22.2-22.76-22.2-12-.57-22.2,9.1-22.77,21.06A2.08,2.08,0,0,1,452.19,391.74Z" transform="translate(-16.5 -262.5)"/><path id="Pfad_166" data-name="Pfad 166" class="cls-1" d="M504.55,413.37h14.23V390c0-4.56,2.28-9.11,7.4-9.11,7.4,0,6.83,5.69,6.83,11.95v20.49h14.23V385.48c0-6.26-1.14-16.5-15.37-16.5-5.12,0-10.24,2.84-13.66,6.83h0v-5.69H504.55Z" transform="translate(-16.5 -262.5)"/><path id="Pfad_167" data-name="Pfad 167" class="cls-1" d="M583.09,413.37h15.37V393.45H611c13.09,0,21.06-5.69,21.06-20.49,0-14.23-10.24-18.78-21.06-18.78H583.09Zm15.37-46.67h10.25a7.08,7.08,0,0,1,8,6.26v1.71c0,5.12-3.41,7.4-8.53,7.4H597.89Z" transform="translate(-16.5 -262.5)"/><path id="Pfad_168" data-name="Pfad 168" class="cls-1" d="M650.82,400.85c0-3.41,2.85-4.55,5.69-5.69,2.85,0,5.7-1.14,8.54-2.28.57,9.11-1.71,12.52-8.54,12.52C653.67,405.4,650.82,404.27,650.82,400.85Zm.57-17.64a5.89,5.89,0,0,1,6.83-5.13c3.42,0,6.83,1.14,6.83,4.56,0,2.84-1.14,3.41-4,4-9.11,1.71-24.48.57-24.48,14.8,0,9.11,6.27,13.09,14.8,13.09a21.88,21.88,0,0,0,14.23-5.12c0,1.14.57,2.84.57,4h14.23a35.66,35.66,0,0,1-1.71-10.81V383.21c0-12-9.67-14.23-19.92-14.23a36.82,36.82,0,0,0-13.66,2.84,13.68,13.68,0,0,0-6.83,11.39Z" transform="translate(-16.5 -262.5)"/><path id="Pfad_169" data-name="Pfad 169" class="cls-1" d="M699.77,400.85c0-3.41,2.85-4.55,5.69-5.69a47.39,47.39,0,0,0,8.54-2.28c.57,9.11-1.71,12.52-8.54,12.52C702.05,405.4,699.77,404.27,699.77,400.85Zm.57-17.64a5.89,5.89,0,0,1,6.83-5.13c2.85,0,6.83,1.14,6.83,4.56,0,2.84-1.14,3.41-4,4-9.68,1.71-25,1.14-25,14.8,0,9.11,6.26,13.09,14.8,13.09A21.88,21.88,0,0,0,714,409.39c0,1.14.57,2.84.57,4H728.8A25.94,25.94,0,0,1,727.66,402V383.21c0-12-9.68-14.23-19.92-14.23a36.77,36.77,0,0,0-13.66,2.84,13.68,13.68,0,0,0-6.83,11.39Z" transform="translate(-16.5 -262.5)"/><path id="Pfad_170" data-name="Pfad 170" class="cls-1" d="M737.33,413.37h14.23V391.74c0-5.69,4-10.24,9.68-10.24h1.14c1.71,0,3.41.57,5.12.57V369.55c-1.14,0-2.28-.57-3.41-.57-5.7-.57-10.82,2.84-13.1,8.54h0v-7.4H737.33Z" transform="translate(-16.5 -262.5)"/></g><path id="Pfad_171" data-name="Pfad 171" class="cls-1" d="M187.69,505.14c-1.14-29.6-6.27-58.63-14.23-87.08-1.71-7.4-4-13.66-6.26-21.63h0c-1.71,0-3.42.57-5.13.57v.57a259.66,259.66,0,0,1,8.54,27.89,389,389,0,0,1,13.09,76.26h0l4,5.69Z" transform="translate(-16.5 -262.5)"/></g><rect class="cls-3" width="767" height="275"/></svg>