<svg width="90" height="12" viewBox="0 0 90 12" fill="none" xmlns="http://www.w3.org/2000/svg">
<g clip-path="url(#clip0_2034_413)">
<path d="M8.16842 5.81868C8.70475 6.14225 9.09664 6.60734 9.34418 7.21398C9.48858 7.53751 9.56075 7.93689 9.56075 8.41209C9.56075 9.15018 9.35965 9.76947 8.9574 10.27C8.5552 10.7704 7.96732 11.142 7.1938 11.3847C6.70906 11.5465 6.13665 11.6274 5.47654 11.6274H0.541468C0.397076 11.6274 0.270734 11.5743 0.16244 11.4681C0.0541468 11.362 0 11.2381 0 11.0965V10.0046C0 9.85291 0.0541468 9.72399 0.16244 9.61784C0.270734 9.51168 0.397076 9.45858 0.541468 9.45858H5.60032C6.19851 9.45858 6.642 9.35242 6.93079 9.14011C7.17833 8.93787 7.30206 8.66234 7.30206 8.31352C7.30206 7.96471 7.17317 7.67906 6.91532 7.45664C6.5956 7.18364 6.11602 7.04714 5.47654 7.04714H0.541468C0.397076 7.04714 0.270734 6.99408 0.16244 6.88792C0.0541468 6.78172 0 6.65285 0 6.50118V5.45469C0 5.31314 0.0541468 5.18928 0.16244 5.08312C0.270734 4.97697 0.397076 4.92387 0.541468 4.92387H5.19807C5.64156 4.92387 5.9871 4.84805 6.2346 4.69638C6.40997 4.59528 6.54916 4.44867 6.65231 4.25657C6.72453 4.11502 6.76062 3.95072 6.76062 3.76367C6.76062 3.57662 6.73484 3.40726 6.68324 3.2556C6.642 3.13427 6.56983 3.02305 6.46667 2.92194C6.23975 2.66918 5.86333 2.54279 5.33731 2.54279H0.541468C0.397076 2.54279 0.270734 2.48971 0.16244 2.38355C0.0541468 2.27738 0 2.14847 0 1.99681V0.904842C0 0.763289 0.0541468 0.639432 0.16244 0.533266C0.270734 0.427105 0.397076 0.374023 0.541468 0.374023H5.19807C6.47699 0.374023 7.46196 0.727902 8.15295 1.43566C8.74083 2.01198 9.03478 2.73489 9.03478 3.60442C9.03478 4.53464 8.74599 5.27272 8.16842 5.81868ZM20.9997 9.44341C21.1544 9.44341 21.2833 9.49651 21.3864 9.60267C21.4896 9.70882 21.5412 9.83774 21.5412 9.98941V11.0965C21.5412 11.2381 21.4896 11.362 21.3864 11.4681C21.2833 11.5743 21.1544 11.6274 20.9997 11.6274H13.3572C13.2128 11.6274 13.0865 11.5743 12.9782 11.4681C12.8699 11.362 12.8158 11.2381 12.8158 11.0965V9.98941C12.8158 9.83774 12.8699 9.70882 12.9782 9.60267C13.0865 9.49651 13.2128 9.44341 13.3572 9.44341H20.9997ZM13.3572 7.09265C13.2128 7.09265 13.0865 7.03955 12.9782 6.93339C12.8699 6.82724 12.8158 6.70338 12.8158 6.56182V5.42435C12.8158 5.28284 12.8699 5.15898 12.9782 5.05278C13.0865 4.94662 13.2128 4.89357 13.3572 4.89357H20.3035C20.4582 4.89357 20.5897 4.94662 20.698 5.05278C20.8063 5.15898 20.8604 5.28284 20.8604 5.42435V6.56182C20.8604 6.70338 20.8063 6.82724 20.698 6.93339C20.5897 7.03955 20.4582 7.09265 20.3035 7.09265H13.3572ZM20.9997 0.374023C21.1544 0.374023 21.2833 0.427105 21.3864 0.533266C21.4896 0.639432 21.5412 0.763289 21.5412 0.904842V2.01198C21.5412 2.16363 21.4896 2.29255 21.3864 2.39871C21.2833 2.50488 21.1544 2.55796 20.9997 2.55796H13.3572C13.2128 2.55796 13.0865 2.50488 12.9782 2.39871C12.8699 2.29255 12.8158 2.16363 12.8158 2.01198V0.904842C12.8158 0.763289 12.8699 0.639432 12.9782 0.533266C13.0865 0.427105 13.2128 0.374023 13.3572 0.374023H20.9997ZM34.6044 10.7629C34.6663 10.8337 34.7024 10.9196 34.7127 11.0207C34.723 11.1218 34.705 11.2179 34.6586 11.3089C34.6122 11.3998 34.5451 11.4706 34.4575 11.5212C34.3698 11.5717 34.2744 11.597 34.1713 11.597H32.7015C32.6087 11.597 32.5236 11.5768 32.4463 11.5363C32.3689 11.4959 32.3045 11.4403 32.2529 11.3695L28.5555 6.15237L27.0394 7.54762V11.0662C27.0394 11.2078 26.9852 11.3316 26.8769 11.4378C26.7686 11.5439 26.6423 11.597 26.4979 11.597H25.3221C25.1777 11.597 25.0514 11.5439 24.9431 11.4378C24.8348 11.3316 24.7807 11.2078 24.7807 11.0662V6.84999C24.7807 6.68821 24.8374 6.56182 24.9508 6.47084L31.4175 0.525685C31.5206 0.424577 31.6444 0.374023 31.7888 0.374023H33.4596C33.5627 0.374023 33.6607 0.404356 33.7535 0.465021C33.8464 0.525685 33.9134 0.606574 33.9547 0.707678C33.9959 0.808786 34.0062 0.912424 33.9856 1.01859C33.965 1.12475 33.9134 1.21827 33.8309 1.29916L30.2108 4.63574L34.6044 10.7629ZM25.3221 4.2414C25.1777 4.2414 25.0514 4.19085 24.9431 4.08974C24.8348 3.98863 24.7807 3.86225 24.7807 3.71059V0.904842C24.7807 0.763289 24.8348 0.639432 24.9431 0.533266C25.0514 0.427105 25.1777 0.374023 25.3221 0.374023H26.4979C26.6423 0.374023 26.7686 0.427105 26.8769 0.533266C26.9852 0.639432 27.0394 0.763289 27.0394 0.904842V3.71059C27.0394 3.86225 26.9852 3.98863 26.8769 4.08974C26.7686 4.19085 26.6423 4.2414 26.4979 4.2414H25.3221ZM47.4357 10.8842C47.5078 11.046 47.4899 11.2103 47.3815 11.3771C47.2732 11.5439 47.1264 11.6274 46.9407 11.6274H36.6373C36.5444 11.6274 36.4568 11.6046 36.3742 11.5591C36.2918 11.5136 36.2299 11.4555 36.1886 11.3847C36.0751 11.2229 36.0597 11.0561 36.1422 10.8842L36.6218 9.77705C36.663 9.67595 36.7301 9.59508 36.8229 9.53439C36.9157 9.47375 37.0137 9.44341 37.1168 9.44341H44.3259L41.7889 3.49826L39.7159 8.35145C39.6746 8.45255 39.6102 8.53089 39.5225 8.58652C39.4349 8.64215 39.3343 8.66992 39.2208 8.66992H37.9213C37.7253 8.66992 37.5706 8.58905 37.4572 8.42727C37.4159 8.35651 37.3901 8.27559 37.3798 8.18461C37.3695 8.09362 37.3798 8.00769 37.4108 7.92678L40.5513 0.707678C40.5925 0.606574 40.657 0.525685 40.7447 0.465021C40.8323 0.404356 40.9329 0.374023 41.0463 0.374023H42.5315C42.645 0.374023 42.7455 0.404356 42.8332 0.465021C42.9209 0.525685 42.9853 0.606574 43.0266 0.707678L47.4357 10.8842ZM61.712 0.768346C62.3412 1.00089 62.9083 1.37499 63.4137 1.89064C64.4964 2.96239 65.0381 4.32987 65.0381 5.99311C65.0381 7.65631 64.4964 9.02885 63.4137 10.1107C62.9083 10.6264 62.3412 11.0005 61.712 11.233C61.0619 11.4959 60.397 11.6274 59.7163 11.6274H55.3382C55.1936 11.6274 55.0673 11.5743 54.959 11.4681C54.8506 11.362 54.7965 11.2381 54.7965 11.0965V10.0046C54.7965 9.85291 54.8506 9.72399 54.959 9.61784C55.0673 9.51168 55.1936 9.45858 55.3382 9.45858H59.6696C60.5875 9.45858 61.3328 9.12999 61.9051 8.47278C62.4775 7.81556 62.7636 6.99155 62.7636 6.00069C62.7636 5.00984 62.4775 4.1858 61.9051 3.5286C61.3328 2.87139 60.5875 2.54279 59.6696 2.54279H55.3382C55.1936 2.54279 55.0673 2.48971 54.959 2.38355C54.8506 2.27738 54.7965 2.14847 54.7965 1.99681V0.904842C54.7965 0.763289 54.8506 0.639432 54.959 0.533266C55.0673 0.427105 55.1936 0.374023 55.3382 0.374023H59.7163C60.397 0.374023 61.0619 0.505465 61.712 0.768346ZM76.4615 9.44341C76.6162 9.44341 76.7451 9.49651 76.8482 9.60267C76.9513 9.70882 77.0029 9.83774 77.0029 9.98941V11.0965C77.0029 11.2381 76.9513 11.362 76.8482 11.4681C76.7451 11.5743 76.6162 11.6274 76.4615 11.6274H68.819C68.6748 11.6274 68.5481 11.5743 68.4398 11.4681C68.3318 11.362 68.2777 11.2381 68.2777 11.0965V9.98941C68.2777 9.83774 68.3318 9.70882 68.4398 9.60267C68.5481 9.49651 68.6748 9.44341 68.819 9.44341H76.4615ZM68.819 7.09265C68.6748 7.09265 68.5481 7.03955 68.4398 6.93339C68.3318 6.82724 68.2777 6.70338 68.2777 6.56182V5.42435C68.2777 5.28284 68.3318 5.15898 68.4398 5.05278C68.5481 4.94662 68.6748 4.89357 68.819 4.89357H75.7651C75.9198 4.89357 76.0513 4.94662 76.1597 5.05278C76.268 5.15898 76.3222 5.28284 76.3222 5.42435V6.56182C76.3222 6.70338 76.268 6.82724 76.1597 6.93339C76.0513 7.03955 75.9198 7.09265 75.7651 7.09265H68.819ZM76.4615 0.374023C76.6162 0.374023 76.7451 0.427105 76.8482 0.533266C76.9513 0.639432 77.0029 0.763289 77.0029 0.904842V2.01198C77.0029 2.16363 76.9513 2.29255 76.8482 2.39871C76.7451 2.50488 76.6162 2.55796 76.4615 2.55796H68.819C68.6748 2.55796 68.5481 2.50488 68.4398 2.39871C68.3318 2.29255 68.2777 2.16363 68.2777 2.01198V0.904842C68.2777 0.763289 68.3318 0.639432 68.4398 0.533266C68.5481 0.427105 68.6748 0.374023 68.819 0.374023H76.4615ZM89.896 0.616684C90.0096 0.768346 90.0301 0.935172 89.9581 1.11717L85.7189 11.3847C85.6778 11.4858 85.6105 11.5667 85.5179 11.6274C85.4249 11.688 85.3217 11.7184 85.2086 11.7184H83.8472C83.7336 11.7184 83.6305 11.688 83.5375 11.6274C83.4448 11.5667 83.3776 11.4858 83.3365 11.3847L79.0978 1.11717C79.0152 0.945282 79.0305 0.778456 79.1441 0.616684C79.2577 0.454911 79.4071 0.374023 79.5928 0.374023H84.7599C84.9041 0.374023 85.0303 0.427105 85.1387 0.533266C85.247 0.639432 85.3012 0.768346 85.3012 0.920005V2.02714C85.3012 2.1788 85.247 2.30771 85.1387 2.41388C85.0303 2.52004 84.9041 2.57312 84.7599 2.57312H82.1608L84.5279 8.41209L87.6373 0.707678C87.6783 0.606574 87.7456 0.525685 87.8383 0.465021C87.9313 0.404356 88.0344 0.374023 88.148 0.374023H89.4473C89.5404 0.374023 89.6278 0.396773 89.7103 0.442272C89.7929 0.487769 89.8549 0.545905 89.896 0.616684Z" fill="#ffffff"/>
</g>
<defs>
<clipPath id="clip0_2034_413">
<rect width="90" height="12" fill="white"/>
</clipPath>
</defs>
</svg>
