<svg width="38" height="29" viewBox="0 0 38 29" fill="none" xmlns="http://www.w3.org/2000/svg">
<path d="M21.4413 1.45884L16.9412 1.45857L1.50014 23.9586M21.4413 1.45884L36.5 23.9586L34.5001 27.4999M21.4413 1.45884L9.00006 19.9584M1.50014 23.9586L4.50006 27.4999L34.5001 27.4999M1.50014 23.9586L6.00014 23.9585M34.5001 27.4999L21.4413 7.49971L19.0001 11.4997M19.0001 11.4997L13.5001 19.9584M19.0001 11.4997L24.4413 19.9584M13.5001 19.9584L24.4413 19.9584M13.5001 19.9584L12.9412 19.9584L9.00006 19.9584M24.4413 19.9584L26.9413 23.9585L6.00014 23.9585M6.00014 23.9585L9.00006 19.9584" stroke="#333333" stroke-width="1.7"/>
</svg>
